<svg width="301" height="14" viewBox="0 0 301 14" fill="none" xmlns="http://www.w3.org/2000/svg">
<path d="M1.95612 11.6354C2.44006 10.0223 6.45742 7.82633 7.87513 7.00315C10.1239 5.69741 12.8519 4.5913 15.5164 4.90476C21.845 5.6493 26.8568 11.2342 33.2339 11.9126C36.3495 12.244 39.2317 11.8533 42.2411 11.1009C46.2614 10.0959 49.8226 7.91241 53.802 6.84478C56.3842 6.15197 59.6413 5.42518 62.3143 5.59763C65.1298 5.77927 67.2782 8.3856 69.4804 9.85378C75.084 13.5895 80.834 11.446 87.0791 10.5664C94.2206 9.56059 101.152 6.40403 108.419 6.29049C110.961 6.25078 113.063 6.89056 115.031 8.58683C116.373 9.74403 117.321 10.4594 119.089 10.7446C128.314 12.2324 135.875 5.29026 144.666 4.50884C147.402 4.2656 150.044 3.89714 152.762 4.50884C155.969 5.23028 158.309 7.65091 161.235 9.06193C164.134 10.4594 168.176 9.95486 171.252 9.65582C176.76 9.12028 181.243 7.67649 186.336 5.77579C189.866 4.45871 193.22 2.99993 197.066 3.08353C201.365 3.17698 205.178 6.95908 208.904 8.70561C210.84 9.6131 212.938 10.8876 215.12 10.9228C218.584 10.9786 221.943 10.1217 225.097 8.70561C232.294 5.47431 239.057 2.25999 246.932 5.06313C253.434 7.37748 259.869 11.4861 267.025 9.29949C272.158 7.73119 275.786 2.81806 281.278 1.93536C285.428 1.2684 289.104 1.72085 292.998 3.2023C295.166 4.02754 297.325 5.2124 299.491 5.93416" stroke="#D8BA53" stroke-width="3" stroke-linecap="round"/>
</svg>
