<svg width="198" height="83" viewBox="0 0 198 83" fill="none" xmlns="http://www.w3.org/2000/svg">
<path d="M1.6615 81.4534C21.3801 75.3638 41.4437 70.5367 61.7055 66.6402C91.0912 60.9891 121.356 57.2264 150.173 49.0417C160.559 46.0918 170.913 42.5406 180.717 37.9951C185.357 35.844 189.439 33.5313 192.207 29.1642C194.98 24.7896 197.392 17.2469 194.423 12.3252C192.611 9.32209 188.764 7.82956 185.655 6.84944C172.276 2.63207 157.529 2.58102 143.653 2.4498C116.953 2.19733 89.0443 3.47394 64.0794 13.9079C57.4987 16.6582 46.7353 21.1095 43.1257 28.088C40.9097 32.3723 58.1148 33.3244 59.7747 33.5954" stroke="#D8BA53" stroke-width="3" stroke-linecap="round"/>
</svg>
