<svg width="276" height="105" viewBox="0 0 276 105" fill="none" xmlns="http://www.w3.org/2000/svg">
<path d="M110.64 75.0354C109.889 74.222 108.946 73.0077 107.722 73.7821C106.894 74.3062 106.17 75.3103 105.568 76.0341C103.32 78.7354 101.568 81.635 100.467 84.9932C99.1283 89.0766 97.5672 95.4895 100.33 99.3571C102.48 102.367 107.18 102.067 110.386 101.511C116.533 100.446 122.758 97.0633 127.54 93.1298C130.763 90.4784 133.549 86.4714 133.855 82.1831C133.865 82.0479 133.933 80.0351 133.444 80.1856C132.381 80.5127 131.557 83.0068 131.28 83.8476C130.857 85.1353 129.103 94.9387 132.847 93.4236C134.284 92.8418 135.512 91.1728 136.382 89.977C138.295 87.3457 140.119 83.2337 139.25 79.8919C138.76 78.0073 136.514 75.8748 134.727 75.192C133.255 74.6297 132.186 75.6758 131.349 76.7685C130.199 78.2688 129.115 80.2942 129.302 82.2516C129.453 83.8202 130.807 83.5595 131.966 83.4951" stroke="#D8BA53" stroke-width="3" stroke-linecap="round"/>
<path d="M156.111 73.8016C155.038 80.6765 155.406 87.7102 155.406 94.6474C155.406 95.4067 155.81 102.994 154.877 103.156C154.403 103.239 154.362 102.334 154.192 101.883C153.017 98.7688 152.351 95.4032 151.872 92.1212C151.222 87.6783 150.754 82.7074 152.968 78.5895C155.133 74.5637 159.42 70.7037 163.621 68.8863C167.636 67.1494 172.973 68.0305 174.519 72.5287C175.113 74.2568 175.03 76.1763 174.891 77.9629C174.658 80.9704 174.032 83.8985 173.138 86.7751C172.712 88.1471 170.947 92.0216 171.817 90.8777C172.745 89.6563 174.005 88.6386 175.106 87.5878C176.928 85.8508 178.676 84.0605 180.433 82.2613" stroke="#D8BA53" stroke-width="3" stroke-linecap="round"/>
<path d="M188.364 64.1082C187.176 68.4944 186.666 73.009 186.19 77.5223C185.484 84.2254 185.08 90.953 185.015 97.6925C185.015 97.7679 185.239 100.986 184.447 100.473C183.84 100.08 183.256 99.231 182.783 98.75C180.788 96.7221 178.642 94.8581 176.497 92.9927C175.989 92.5513 167.811 85.9953 168.879 85.1791C169.681 84.5667 171.504 84.3055 172.365 84.1119C176.602 83.1586 180.894 82.4109 185.172 81.6738C193.055 80.3157 200.993 79.0769 208.945 78.1881C209.122 78.1683 211.773 77.5826 210.571 78.384" stroke="#D8BA53" stroke-width="3" stroke-linecap="round"/>
<path d="M217.444 69.7478C217.601 69.3951 216.665 69.5814 216.289 69.6695C214.214 70.1559 212.141 71.0632 210.375 72.2544C207.671 74.0784 205.631 76.7144 204.187 79.6175C202.403 83.2022 200.916 87.6065 201.876 91.6315C202.055 92.3806 202.325 93.5691 202.973 94.1087C203.449 94.5059 204.405 93.3129 204.637 93.0904C206.504 91.3047 208.223 89.3584 209.983 87.4702C213.047 84.183 216.502 80.9233 218.335 76.7389C218.926 75.3909 219.363 73.8864 219.363 72.4013C219.363 72.2445 219.346 71.5167 219.099 72.0292C217.853 74.6166 218.011 78.0545 218.228 80.8317C218.34 82.2751 218.617 83.6949 219.422 84.9244C219.653 85.2773 220.499 86.4854 221.096 86.2463C221.829 85.9532 222.536 85.1237 223.104 84.6111C224.301 83.5305 225.461 82.6332 226.785 81.7325" stroke="#D8BA53" stroke-width="3" stroke-linecap="round"/>
<path d="M245.467 67.1043C241.261 64.7909 237.186 68.7061 235.186 72.0391C232.852 75.9286 231.408 80.3065 231.005 84.8266C230.784 87.3082 231.003 89.8229 232.944 91.6023C234.47 93.0013 236.85 92.6006 238.691 92.2681C245.893 90.9675 253.646 88.2173 259.586 83.8671C263.629 80.9061 267.417 76.2222 268.046 71.0992C268.257 69.3814 268.203 67.6082 268.203 65.8804C268.203 65.5953 268.286 64.8794 268.163 64.539C268.048 64.2181 267.656 65.0206 267.517 65.3321C265.281 70.3472 263.929 75.688 262.631 81.008C261.469 85.7729 260.341 90.6248 259.948 95.5286C259.939 95.6518 259.992 96.4235 259.841 95.9496C259.589 95.1612 259.301 94.4499 258.862 93.7368C256.478 89.8709 252.793 86.7964 249.599 83.6321C249.556 83.5896 244.83 79.1888 245.487 78.7756C246.128 78.3716 247.642 78.2567 248.258 78.1391C251.567 77.5071 254.893 76.9596 258.235 76.5236C263.537 75.8318 268.848 75.3878 274.195 75.3878" stroke="#D8BA53" stroke-width="3" stroke-linecap="round"/>
<path d="M8.49053 1.95825C8.49053 9.51858 8.49053 17.0789 8.49053 24.6392C8.49053 28.7024 7.6145 34.0766 9.42736 37.8534C14.0552 47.4948 24.7345 50.2178 32.3549 56.8857C42.8959 66.109 55.0791 65.8594 67.9541 65.8594" stroke="#D8BA53" stroke-width="3" stroke-linecap="round"/>
<path d="M8.49053 2.8457C8.39551 3.7009 2.51893 13.3973 1.83416 13.3973C1.35272 13.3973 6.19511 7.63873 7.15925 6.88883C11.1936 3.75104 16.5001 11.4324 20.0282 12.6084" stroke="#D8BA53" stroke-width="3" stroke-linecap="round"/>
</svg>
