<svg width="425" height="104" viewBox="0 0 425 104" fill="none" xmlns="http://www.w3.org/2000/svg">
<path d="M17.1743 89.092C10.0692 75.4283 15.2936 60.1515 25.3791 49.4688C42.2628 31.5854 65.5349 19.4711 88.8962 12.5672C122.299 2.69585 158.908 0.165936 193.517 3.16173C219.286 5.39232 250.853 13.1326 265.239 37.0616C265.993 38.3152 272.071 48.4546 270.042 49.4688" stroke="#D8BA53" stroke-width="3" stroke-linecap="round"/>
<path d="M2.04541 76.1243C3.12449 78.4848 21.4438 104.886 24.7387 100.859C27.3664 97.647 27.7743 92.3064 29.2613 88.5315C30.1611 86.2476 30.6799 82.339 33.0235 81.1672" stroke="#D8BA53" stroke-width="3" stroke-linecap="round"/>
<path d="M259.686 74.0129C258.935 73.1995 257.992 71.9852 256.768 72.7596C255.939 73.2838 255.216 74.2878 254.614 75.0116C252.366 77.713 250.613 80.6125 249.512 83.9707C248.174 88.0541 246.613 94.4671 249.375 98.3347C251.525 101.344 256.226 101.044 259.431 100.489C265.579 99.4235 271.804 96.0409 276.585 92.1073C279.809 89.4559 282.595 85.449 282.901 81.1606C282.91 81.0255 282.979 79.0126 282.49 79.1632C281.427 79.4902 280.602 81.9844 280.326 82.8251C279.902 84.1128 278.149 93.9163 281.892 92.4011C283.33 91.8193 284.557 90.1504 285.427 88.9545C287.341 86.3233 289.165 82.2112 288.296 78.8694C287.806 76.9848 285.559 74.8524 283.772 74.1696C282.301 73.6073 281.231 74.6533 280.394 75.746C279.245 77.2463 278.16 79.2718 278.348 81.2292C278.498 82.7978 279.852 82.537 281.011 82.4727" stroke="#D8BA53" stroke-width="3" stroke-linecap="round"/>
<path d="M305.157 72.7791C304.083 79.654 304.452 86.6877 304.452 93.6249C304.452 94.3843 304.856 101.971 303.923 102.134C303.448 102.216 303.408 101.312 303.237 100.861C302.063 97.7463 301.397 94.3808 300.917 91.0987C300.268 86.6558 299.799 81.6849 302.014 77.5671C304.178 73.5413 308.466 69.6813 312.667 67.8638C316.681 66.1269 322.018 67.008 323.564 71.5062C324.158 73.2343 324.075 75.1538 323.936 76.9404C323.703 79.948 323.078 82.8761 322.184 85.7526C321.757 87.1247 319.993 90.9991 320.862 89.8552C321.79 88.6338 323.05 87.6161 324.152 86.5653C325.973 84.8283 327.721 83.038 329.478 81.2388" stroke="#D8BA53" stroke-width="3" stroke-linecap="round"/>
<path d="M337.409 63.0857C336.221 67.4719 335.711 71.9866 335.236 76.4999C334.53 83.2029 334.125 89.9306 334.061 96.67C334.06 96.7455 334.285 99.9632 333.493 99.4508C332.885 99.0575 332.301 98.2085 331.828 97.7275C329.833 95.6997 327.687 93.8356 325.542 91.9702C325.035 91.5288 316.856 84.9728 317.925 84.1567C318.726 83.5443 320.55 83.2831 321.41 83.0894C325.647 82.1362 329.939 81.3884 334.217 80.6514C342.1 79.2932 350.038 78.0545 357.991 77.1657C358.168 77.1459 360.818 76.5601 359.616 77.3615" stroke="#D8BA53" stroke-width="3" stroke-linecap="round"/>
<path d="M366.49 68.7254C366.646 68.3726 365.71 68.5589 365.334 68.6471C363.26 69.1334 361.186 70.0407 359.42 71.232C356.716 73.056 354.677 75.6919 353.232 78.5951C351.449 82.1797 349.962 86.584 350.921 90.6091C351.1 91.3582 351.37 92.5466 352.018 93.0863C352.495 93.4834 353.45 92.2904 353.683 92.068C355.549 90.2822 357.269 88.336 359.029 86.4477C362.093 83.1605 365.547 79.9008 367.381 75.7164C367.971 74.3684 368.409 72.864 368.409 71.3788C368.409 71.2221 368.391 70.4943 368.144 71.0068C366.899 73.5941 367.056 77.0321 367.273 79.8092C367.386 81.2526 367.662 82.6724 368.467 83.902C368.699 84.2548 369.544 85.4629 370.142 85.2238C370.875 84.9307 371.581 84.1013 372.149 83.5887C373.346 82.508 374.506 81.6107 375.831 80.71" stroke="#D8BA53" stroke-width="3" stroke-linecap="round"/>
<path d="M394.512 66.0818C390.306 63.7685 386.231 67.6836 384.232 71.0167C381.898 74.9061 380.453 79.284 380.051 83.8042C379.83 86.2858 380.048 88.8005 381.989 90.5798C383.516 91.9789 385.896 91.5782 387.737 91.2456C394.938 89.945 402.692 87.1949 408.632 82.8446C412.675 79.8836 416.462 75.1998 417.091 70.0767C417.302 68.3589 417.248 66.5858 417.248 64.8579C417.248 64.5728 417.331 63.8569 417.209 63.5165C417.093 63.1956 416.702 63.9981 416.563 64.3096C414.326 69.3247 412.974 74.6656 411.677 79.9856C410.515 84.7504 409.386 89.6023 408.994 94.5061C408.984 94.6293 409.037 95.401 408.886 94.9272C408.635 94.1388 408.347 93.4274 407.907 92.7143C405.523 88.8485 401.839 85.774 398.644 82.6096C398.602 82.5672 393.876 78.1664 394.532 77.7531C395.174 77.3492 396.687 77.2343 397.303 77.1167C400.613 76.4847 403.939 75.9371 407.28 75.5011C412.582 74.8093 417.894 74.3653 423.24 74.3653" stroke="#D8BA53" stroke-width="3" stroke-linecap="round"/>
</svg>
