<svg width="171" height="17" viewBox="0 0 171 17" fill="none" xmlns="http://www.w3.org/2000/svg">
<path d="M2 15.0525C2.67922 14.8673 3.09114 14.2453 3.62328 13.8252C4.71691 12.9618 6.21012 12.3866 7.5033 11.9248C12.4466 10.1593 17.7052 9.35128 22.9442 9.35128C27.3058 9.35128 32.0314 10.4845 36.0096 12.2811C38.4252 13.372 40.5786 14.2576 43.2352 14.518C48.4927 15.0335 53.8885 13.1511 58.8146 11.4893C61.2242 10.6764 63.6806 10.0502 66.0996 9.2721C68.5172 8.4944 70.7337 7.12882 73.1866 6.50065C75.6685 5.86505 78.3705 5.30677 80.8279 6.38188C83.7015 7.6391 85.7965 10.0936 88.5879 11.4893C92.633 13.5118 97.6932 13.2011 101.99 12.2217C106.368 11.2238 110.78 9.62912 114.56 7.17372C116.248 6.07775 117.897 5.04275 119.747 4.22411C126.914 1.05167 133.892 1.24167 140.889 4.99615C146.198 7.84503 151.625 9.89363 157.735 9.31169C161.39 8.96363 165.95 7.33236 169.118 5.43167" stroke="#D8BA53" stroke-width="3" stroke-linecap="round"/>
</svg>
