<svg width="218" height="16" viewBox="0 0 218 16" fill="none" xmlns="http://www.w3.org/2000/svg">
<path d="M1.96503 13.3723C2.55742 9.81791 7.30036 9.13798 10.1117 9.13798C12.7441 9.13798 14.5101 9.86279 16.6241 11.3666C19.0633 13.1017 21.5605 13.7497 24.5232 13.8056C27.8623 13.8686 30.4908 13.7556 33.3384 11.9485C35.303 10.7017 36.952 9.30309 39.0832 8.29607C43.9386 6.00176 49.4938 8.65815 53.2099 11.7875C54.7572 13.0905 56.521 13.7455 58.5337 13.8056C62.7765 13.9323 67.0095 13.6057 70.6299 11.1685C74.7619 8.38679 79.8019 3.49276 85.2642 5.2875C87.4295 5.99897 89.3712 7.61773 91.1204 9.03893C93.9285 11.3205 96.674 13.0234 100.295 13.5951C106.582 14.5878 111.04 11.5387 116.179 8.38274C119.727 6.20425 124.058 2.86525 127.694 6.50083C129.372 8.17894 130.723 10.0822 132.894 11.1437C135.176 12.2592 137.102 13.0614 139.691 12.9266C141.4 12.8376 143.061 11.9667 144.643 11.3913C145.979 10.9057 147.374 10.4644 148.531 9.60846C150.86 7.88519 152.519 5.34452 155.415 4.47035C157.952 3.70437 160.396 3.92923 162.781 5.0275C165.761 6.39902 168.752 7.66989 171.56 9.36084C173.104 10.2913 174.887 11.3226 176.735 11.3666C180.312 11.4517 182.856 10.2507 185.921 8.41988C189.172 6.47886 193.116 0.156217 197.56 2.37797C200.878 4.03729 202.611 9.65554 206.87 8.80369C208.718 8.43411 211.008 7.48564 212.565 6.42655C213.752 5.61964 214.672 4.53103 215.908 3.7894" stroke="#D8BA53" stroke-width="3" stroke-linecap="round"/>
</svg>
