<svg width="161" height="49" viewBox="0 0 161 49" fill="none" xmlns="http://www.w3.org/2000/svg">
<path d="M3.95984 11.5834C2.28844 14.4466 0.826072 17.5524 1.90365 20.9635C2.80086 23.8037 5.38501 25.2421 8.20928 25.35C11.9414 25.4927 15.4115 23.7221 15.3276 19.6515C15.2757 17.1344 10.9539 12.4013 9.50174 16.5966C6.8481 24.2627 26.0326 20.3967 28.5166 19.4459C29.3127 19.1411 30.3824 18.5973 29.9461 17.5659C29.5952 16.7366 28.5192 15.9196 27.5962 15.8916C25.7402 15.8354 27.1879 22.759 27.4101 23.4016C28.6908 27.1039 31.4674 28.6756 35.1061 27.1615C36.9064 26.4123 38.754 25.3008 39.5906 23.4505C40.5979 21.2228 39.4182 19.061 37.74 17.5561C36.1185 16.1022 34.0992 14.9679 32.2373 13.855C31.2608 13.2714 30.1895 12.5724 29.104 12.1905C28.6603 12.0344 28.7786 13.064 28.7711 13.2088C28.6683 15.213 28.6786 17.0599 29.8384 18.7996C31.2748 20.9543 33.5166 22.0338 35.9482 22.7064C39.2548 23.621 42.89 24.0677 46.2977 23.5093C49.3135 23.0151 55.3057 20.6439 54.8161 16.5966C54.7103 15.7216 53.8137 14.494 52.7795 14.6089C52.0524 14.6897 50.9668 16.7225 51.6633 16.4987C52.1988 16.3265 53.1224 14.4273 53.4845 14.4816C53.8075 14.5301 54.1446 16.2391 54.1699 16.3224C55.6039 21.0395 57.0826 25.7199 58.1942 30.5297C59.2509 35.1021 60.1745 39.7417 60.4755 44.4334C60.5297 45.2774 60.9952 47.5674 60.3972 46.9694C59.3036 45.8758 58.4197 43.779 57.6556 42.5143C54.6712 37.5746 51.5242 32.3833 49.9009 26.7992C47.503 18.5503 50.746 9.69969 58.3606 5.53235C61.4738 3.82857 65.2935 2.59112 68.8374 3.61324C72.1701 4.57448 74.4424 7.17843 75.4269 10.3987C75.7696 11.5195 76.4162 13.4831 75.7403 14.6285C74.5794 16.5954 70.4627 16.8586 68.5436 17.1057C67.4175 17.2507 57.96 18.4159 60.1133 14.9027C61.1574 13.199 63.6785 12.4761 65.4202 11.9261C70.4191 10.3475 75.6733 9.61271 80.8611 8.9789C86.0765 8.34173 91.3204 7.9937 96.5371 7.37312C97.7845 7.22473 99.0889 7.04323 100.336 6.84439C100.932 6.74941 102.014 6.6976 102.539 6.25691C103.664 5.31305 102.034 3.68939 101.266 3.29992C99.9521 2.6333 97.453 1.88733 95.9986 2.61452C95.5267 2.85044 95.5613 3.33376 95.7146 3.77969C96.6646 6.54318 100.725 8.65116 102.901 10.0364C107.821 13.1678 113.277 15.5457 118.039 18.9073C119.473 19.9198 123.141 23.0055 121.593 25.213C120.385 26.9356 117.007 27.5209 115.19 27.935C109.361 29.2633 103.315 29.4892 97.3596 29.531C97.0856 29.5329 93.0487 29.9158 92.7185 29.0903C92.3934 28.2777 94.6956 27.4834 95.0782 27.2692" stroke="#D8BA53" stroke-width="3" stroke-linecap="round"/>
<path d="M144.048 26.3138C144.346 29.2883 147.48 32.3127 150.425 32.6399C156.082 33.2684 157.721 30.7322 159.028 25.5041C160.558 19.3849 151.28 20.7368 154.069 26.3138" stroke="#D8BA53" stroke-width="3" stroke-linecap="round"/>
</svg>
