<svg width="134" height="14" viewBox="0 0 134 14" fill="none" xmlns="http://www.w3.org/2000/svg">
<path d="M2.1055 9.75665C4.41055 8.30083 5.58369 5.24109 8.22248 4.23355C13.7444 2.12519 20.3448 1.95615 26.1775 2.35293C32.4841 2.78195 35.278 9.01287 41.1037 10.4693C44.3502 11.2809 48.5593 11.0516 51.7342 10.0932C54.8241 9.16037 57.3932 6.859 60.3059 5.4807C62.3796 4.49936 64.1359 3.16038 66.5218 3.38232C69.9687 3.70296 72.0272 5.63657 74.559 7.73745C75.9702 8.9084 77.8423 11.3222 79.805 11.5185C82.6043 11.7984 85.0766 10.5543 87.664 9.67746C91.436 8.39918 95.2834 7.23877 98.8686 5.5005C100.689 4.6178 103.489 4.41143 105.441 5.0056C108.866 6.0481 112.177 8.13589 115.378 9.73685C117.164 10.6298 117.886 10.3043 119.694 9.40032C123.514 7.49044 127.496 4.17834 131.809 3.69906" stroke="#D8BA53" stroke-width="3" stroke-linecap="round"/>
</svg>
